<svg width="113" height="31" viewBox="0 0 113 31" fill="none" xmlns="http://www.w3.org/2000/svg">
<rect width="112.844" height="30.5734" rx="15.2867" fill="#4C577D"/>
<path d="M22.0398 10.6467L18.7797 19.2866H17.4781L14.218 10.6467H15.4204L18.1351 18.0966L20.8498 10.6467H22.0398ZM23.8593 11.3904C23.6444 11.3904 23.4626 11.3161 23.3139 11.1673C23.1651 11.0186 23.0908 10.8368 23.0908 10.6219C23.0908 10.407 23.1651 10.2252 23.3139 10.0765C23.4626 9.92772 23.6444 9.85335 23.8593 9.85335C24.0659 9.85335 24.2395 9.92772 24.3799 10.0765C24.5287 10.2252 24.6031 10.407 24.6031 10.6219C24.6031 10.8368 24.5287 11.0186 24.3799 11.1673C24.2395 11.3161 24.0659 11.3904 23.8593 11.3904ZM24.4047 12.4937V19.2866H23.2767V12.4937H24.4047ZM28.7321 19.3982C28.2114 19.3982 27.7445 19.3114 27.3313 19.1379C26.9181 18.9561 26.5917 18.7081 26.352 18.3941C26.1124 18.0718 25.9802 17.7041 25.9554 17.2909H27.1206C27.1536 17.6297 27.3107 17.9065 27.5916 18.1214C27.8809 18.3363 28.2569 18.4437 28.7197 18.4437C29.1494 18.4437 29.4882 18.3487 29.7361 18.1586C29.984 17.9685 30.108 17.7289 30.108 17.4396C30.108 17.1421 29.9758 16.9231 29.7113 16.7827C29.4469 16.6339 29.0378 16.4893 28.4841 16.3488C27.98 16.2166 27.5668 16.0843 27.2446 15.9521C26.9305 15.8116 26.6578 15.6092 26.4264 15.3447C26.2033 15.072 26.0917 14.7167 26.0917 14.2787C26.0917 13.9316 26.195 13.6134 26.4016 13.3242C26.6082 13.035 26.9016 12.8077 27.2817 12.6424C27.6619 12.4689 28.0957 12.3821 28.5833 12.3821C29.3353 12.3821 29.9427 12.5722 30.4055 12.9523C30.8683 13.3325 31.1162 13.8531 31.1493 14.5142H30.0212C29.9964 14.1589 29.8518 13.8737 29.5874 13.6589C29.3312 13.444 28.9841 13.3366 28.5461 13.3366C28.1412 13.3366 27.8189 13.4234 27.5792 13.5969C27.3396 13.7705 27.2198 13.9977 27.2198 14.2787C27.2198 14.5018 27.29 14.6877 27.4305 14.8365C27.5792 14.977 27.761 15.0927 27.9759 15.1836C28.199 15.2662 28.5048 15.3613 28.8932 15.4687C29.3808 15.6009 29.7774 15.7331 30.0832 15.8654C30.389 15.9893 30.6493 16.1794 30.8642 16.4356C31.0873 16.6917 31.203 17.0264 31.2112 17.4396C31.2112 17.8115 31.1079 18.1462 30.9013 18.4437C30.6947 18.7412 30.4014 18.9767 30.0212 19.1503C29.6494 19.3155 29.2196 19.3982 28.7321 19.3982ZM38.828 12.4937V19.2866H37.7V18.2826C37.4851 18.6296 37.1835 18.9023 36.7951 19.1007C36.415 19.2908 35.9935 19.3858 35.5307 19.3858C35.0018 19.3858 34.5267 19.2784 34.1052 19.0635C33.6837 18.8404 33.349 18.5098 33.1011 18.0718C32.8615 17.6338 32.7416 17.1008 32.7416 16.4728V12.4937H33.8573V16.324C33.8573 16.9934 34.0267 17.5099 34.3655 17.8735C34.7043 18.2288 35.1671 18.4065 35.7538 18.4065C36.3571 18.4065 36.8323 18.2206 37.1794 17.8487C37.5265 17.4768 37.7 16.9355 37.7 16.2248V12.4937H38.828ZM40.3112 15.8654C40.3112 15.1712 40.4517 14.5638 40.7326 14.0432C41.0136 13.5143 41.3979 13.1052 41.8855 12.816C42.3813 12.5267 42.9308 12.3821 43.5341 12.3821C44.1291 12.3821 44.6456 12.5102 45.0836 12.7664C45.5216 13.0226 45.848 13.3449 46.0629 13.7333V12.4937H47.2033V19.2866H46.0629V18.0222C45.8397 18.4189 45.5051 18.7495 45.0588 19.0139C44.6208 19.2701 44.1084 19.3982 43.5217 19.3982C42.9184 19.3982 42.373 19.2494 41.8855 18.9519C41.3979 18.6544 41.0136 18.2371 40.7326 17.6999C40.4517 17.1628 40.3112 16.5513 40.3112 15.8654ZM46.0629 15.8778C46.0629 15.3654 45.9596 14.9191 45.753 14.539C45.5464 14.1589 45.2654 13.8696 44.91 13.6713C44.563 13.4647 44.1787 13.3614 43.7572 13.3614C43.3358 13.3614 42.9515 13.4606 42.6044 13.6589C42.2573 13.8572 41.9805 14.1465 41.7739 14.5266C41.5673 14.9067 41.464 15.353 41.464 15.8654C41.464 16.386 41.5673 16.8405 41.7739 17.2289C41.9805 17.609 42.2573 17.9024 42.6044 18.109C42.9515 18.3073 43.3358 18.4065 43.7572 18.4065C44.1787 18.4065 44.563 18.3073 44.91 18.109C45.2654 17.9024 45.5464 17.609 45.753 17.2289C45.9596 16.8405 46.0629 16.3901 46.0629 15.8778ZM50.2376 10.1137V19.2866H49.1095V10.1137H50.2376ZM52.7427 11.3904C52.5278 11.3904 52.346 11.3161 52.1973 11.1673C52.0485 11.0186 51.9742 10.8368 51.9742 10.6219C51.9742 10.407 52.0485 10.2252 52.1973 10.0765C52.346 9.92772 52.5278 9.85335 52.7427 9.85335C52.9493 9.85335 53.1228 9.92772 53.2633 10.0765C53.4121 10.2252 53.4865 10.407 53.4865 10.6219C53.4865 10.8368 53.4121 11.0186 53.2633 11.1673C53.1228 11.3161 52.9493 11.3904 52.7427 11.3904ZM53.2881 12.4937V19.2866H52.1601V12.4937H53.2881ZM56.0536 18.3569H59.3881V19.2866H54.7644V18.3569L58.0617 13.411H54.7892V12.4937H59.3633V13.411L56.0536 18.3569ZM60.4303 15.8654C60.4303 15.1712 60.5708 14.5638 60.8517 14.0432C61.1327 13.5143 61.517 13.1052 62.0046 12.816C62.5004 12.5267 63.0499 12.3821 63.6532 12.3821C64.2482 12.3821 64.7647 12.5102 65.2027 12.7664C65.6407 13.0226 65.9671 13.3449 66.182 13.7333V12.4937H67.3224V19.2866H66.182V18.0222C65.9588 18.4189 65.6242 18.7495 65.1779 19.0139C64.7399 19.2701 64.2276 19.3982 63.6408 19.3982C63.0376 19.3982 62.4921 19.2494 62.0046 18.9519C61.517 18.6544 61.1327 18.2371 60.8517 17.6999C60.5708 17.1628 60.4303 16.5513 60.4303 15.8654ZM66.182 15.8778C66.182 15.3654 66.0787 14.9191 65.8721 14.539C65.6655 14.1589 65.3845 13.8696 65.0292 13.6713C64.6821 13.4647 64.2978 13.3614 63.8763 13.3614C63.4549 13.3614 63.0706 13.4606 62.7235 13.6589C62.3764 13.8572 62.0996 14.1465 61.893 14.5266C61.6864 14.9067 61.5831 15.353 61.5831 15.8654C61.5831 16.386 61.6864 16.8405 61.893 17.2289C62.0996 17.609 62.3764 17.9024 62.7235 18.109C63.0706 18.3073 63.4549 18.4065 63.8763 18.4065C64.2978 18.4065 64.6821 18.3073 65.0292 18.109C65.3845 17.9024 65.6655 17.609 65.8721 17.2289C66.0787 16.8405 66.182 16.3901 66.182 15.8778ZM70.3567 13.5969C70.555 13.2085 70.836 12.9069 71.1996 12.692C71.5715 12.4771 72.0219 12.3697 72.5507 12.3697V13.5349H72.2532C70.9889 13.5349 70.3567 14.2208 70.3567 15.5926V19.2866H69.2286V12.4937H70.3567V13.5969Z" fill="white"/>
<path d="M98.7289 15.6973L91.7562 22.67C91.6461 22.7726 91.5004 22.8285 91.3498 22.8258C91.1993 22.8232 91.0557 22.7622 90.9492 22.6558C90.8428 22.5493 90.7818 22.4057 90.7791 22.2551C90.7765 22.1046 90.8323 21.9589 90.935 21.8488L96.915 15.8677H81.2739C81.1198 15.8677 80.972 15.8065 80.8631 15.6976C80.7541 15.5886 80.6929 15.4408 80.6929 15.2867C80.6929 15.1326 80.7541 14.9848 80.8631 14.8758C80.972 14.7668 81.1198 14.7056 81.2739 14.7056H96.915L90.935 8.72461C90.8323 8.61446 90.7765 8.46878 90.7791 8.31824C90.7818 8.16771 90.8428 8.02408 90.9492 7.91762C91.0557 7.81116 91.1993 7.75018 91.3498 7.74753C91.5004 7.74487 91.6461 7.80075 91.7562 7.90339L98.7289 14.8761C98.8377 14.985 98.8988 15.1327 98.8988 15.2867C98.8988 15.4407 98.8377 15.5884 98.7289 15.6973Z" fill="white"/>
</svg>
