<svg width="74" height="73" viewBox="0 0 74 73" fill="none" xmlns="http://www.w3.org/2000/svg">
<path d="M63.5291 26.7894L58.2878 17.7104C57.6006 16.5184 56.6228 15.5198 55.4457 14.8075C54.2685 14.0951 52.9302 13.6923 51.5554 13.6365C50.1807 13.5807 48.8141 13.8737 47.5831 14.4883C46.3521 15.1029 45.2966 16.019 44.515 17.1513L40.0483 9.40881C39.3417 8.18523 38.3293 7.16628 37.1103 6.45187C35.8912 5.73746 34.5075 5.35212 33.0946 5.33362C31.6818 5.31512 30.2885 5.66411 29.0511 6.34636C27.8138 7.02861 26.7751 8.0207 26.0367 9.22537C24.5946 7.92707 22.7368 7.18565 20.7971 7.13436C18.8574 7.08306 16.963 7.72525 15.4543 8.94551C13.9456 10.1658 12.9217 11.8841 12.5664 13.7917C12.2111 15.6993 12.5478 17.671 13.5159 19.3526L14.4885 21.0386C13.1168 21.1488 11.7954 21.6044 10.6473 22.3629C9.49921 23.1214 8.56177 24.1582 7.92232 25.3767C7.28286 26.5951 6.96221 27.9556 6.99021 29.3314C7.01822 30.7071 7.39399 32.0534 8.08251 33.2448L19.1474 52.4103C20.8229 55.3297 23.0606 57.8879 25.731 59.9371C28.4015 61.9863 31.4516 63.4857 34.7051 64.3487C36.882 64.9302 39.1258 65.2239 41.379 65.2223C45.873 65.2148 50.2861 64.0256 54.1753 61.7738C58.0645 59.5221 61.2932 56.2871 63.5372 52.3934C65.7813 48.4997 66.9618 44.0843 66.9604 39.5903C66.9589 35.0963 65.7756 30.6816 63.5291 26.7894ZM61.5869 45.026C60.5139 49.0312 58.2772 52.6284 55.1599 55.3625C52.0425 58.0966 48.1843 59.8448 44.0733 60.3862C39.9623 60.9276 35.7831 60.2378 32.0642 58.4039C28.3452 56.5701 25.2536 53.6747 23.1802 50.0838L12.1154 30.9183C11.8859 30.5208 11.737 30.082 11.6772 29.627C11.6173 29.172 11.6477 28.7096 11.7665 28.2663C12.0065 27.371 12.5923 26.6078 13.3951 26.1444C14.1979 25.681 15.1518 25.5556 16.0471 25.7956C16.4904 25.9144 16.9059 26.1194 17.27 26.3988C17.6341 26.6782 17.9396 27.0267 18.169 27.4241L24.575 38.5181C24.7234 38.7915 24.9251 39.0323 25.1681 39.2265C25.4112 39.4207 25.6906 39.5642 25.99 39.6486C26.2894 39.733 26.6027 39.7565 26.9114 39.7179C27.22 39.6793 27.5178 39.5792 27.7872 39.4236C28.0566 39.268 28.292 39.0601 28.4797 38.812C28.6674 38.5639 28.8035 38.2808 28.88 37.9793C28.9565 37.6778 28.9718 37.364 28.9251 37.0564C28.8783 36.7489 28.7704 36.4538 28.6078 36.1887L17.543 17.0261C17.1975 16.4276 17.0372 15.74 17.0825 15.0504C17.1277 14.3608 17.3764 13.7001 17.7972 13.1518C18.218 12.6036 18.7919 12.1924 19.4463 11.9704C20.1008 11.7483 20.8064 11.7253 21.4739 11.9042C21.9179 12.0213 22.3342 12.2256 22.6986 12.505C23.0631 12.7844 23.3683 13.1335 23.5966 13.5319L33.4967 30.6795C33.8142 31.1971 34.3212 31.5703 34.9097 31.7196C35.4983 31.8689 36.1218 31.7825 36.6476 31.4788C37.1734 31.1751 37.5598 30.6781 37.7245 30.0937C37.8893 29.5093 37.8193 28.8837 37.5296 28.3501L29.9589 15.247C29.5155 14.4458 29.4044 13.5026 29.6493 12.6203C29.8943 11.738 30.4758 10.9871 31.2688 10.5292C32.0617 10.0713 33.0027 9.94295 33.8893 10.1718C34.776 10.4006 35.5373 10.9683 36.0096 11.7528L46 29.0548C43.4568 31.1619 41.7404 34.1004 41.1543 37.3507C40.5681 40.6011 41.15 43.954 42.797 46.8168C43.1059 47.3519 43.6148 47.7425 44.2116 47.9025C44.8085 48.0625 45.4445 47.9788 45.9796 47.6699C46.5148 47.361 46.9054 46.8522 47.0654 46.2553C47.2254 45.6585 47.1417 45.0225 46.8328 44.4873C45.5974 42.3473 45.2626 39.8043 45.902 37.4175C46.5414 35.0307 48.1027 32.9956 50.2425 31.7598C50.5076 31.6069 50.7399 31.4033 50.9262 31.1606C51.1125 30.9179 51.2492 30.6408 51.3284 30.3453C51.4076 30.0497 51.4279 29.7415 51.3879 29.4381C51.348 29.1347 51.2487 28.8422 51.0957 28.5772L48.1839 23.534C47.7405 22.7328 47.6293 21.7896 47.8743 20.9073C48.1193 20.025 48.7008 19.2741 49.4937 18.8162C50.2867 18.3583 51.2277 18.2299 52.1143 18.4588C53.0009 18.6876 53.7623 19.2553 54.2346 20.0398L59.4758 29.1188C60.8623 31.4984 61.7628 34.1294 62.1252 36.8594C62.4875 39.5894 62.3046 42.3643 61.5869 45.0231V45.026ZM53.067 6.38636C53.146 6.09073 53.2826 5.81357 53.4688 5.57073C53.655 5.32789 53.8873 5.12413 54.1523 4.97107C54.4173 4.81802 54.7098 4.71869 55.0132 4.67874C55.3167 4.6388 55.625 4.65903 55.9205 4.73827C60.5532 5.98162 64.3648 8.84683 66.6534 12.8127C66.9623 13.3479 67.046 13.9838 66.886 14.5807C66.726 15.1776 66.3355 15.6864 65.8003 15.9953C65.2651 16.3042 64.6291 16.3879 64.0323 16.2279C63.4354 16.0679 62.9266 15.6773 62.6177 15.1422C60.9521 12.2536 58.1452 10.1571 54.715 9.23992C54.4194 9.16085 54.1423 9.0243 53.8994 8.83808C53.6566 8.65186 53.4528 8.41961 53.2998 8.15461C53.1467 7.88961 53.0474 7.59705 53.0074 7.29365C52.9675 6.99024 52.9877 6.68194 53.067 6.38636ZM22.9706 66.6811C22.7812 66.9215 22.5462 67.1223 22.2792 67.2719C22.0122 67.4215 21.7183 67.517 21.4144 67.553C21.1104 67.5889 20.8024 67.5646 20.5078 67.4815C20.2133 67.3983 19.938 67.258 19.6977 67.0684C16.4947 64.538 13.8421 61.367 11.3699 57.0867C11.061 56.5515 10.9774 55.9156 11.1374 55.3187C11.2974 54.7218 11.6879 54.213 12.2231 53.9041C12.7583 53.5952 13.3942 53.5115 13.9911 53.6715C14.5879 53.8315 15.0968 54.2221 15.4057 54.7573C17.5721 58.5077 19.852 61.2564 22.5833 63.4111C23.068 63.7936 23.3811 64.3528 23.4537 64.966C23.5263 65.5791 23.3526 66.196 22.9706 66.6811Z" fill="#424242"/>
<path opacity="0.2" d="M61.6093 29.3426L56.4095 20.5454C55.6379 19.26 54.377 18.3248 52.902 17.9439C51.427 17.563 49.8576 17.7674 48.5363 18.5125C47.2151 19.2575 46.2492 20.4828 45.8494 21.9208C45.4497 23.3588 45.6486 24.8929 46.4026 26.1883L38.314 12.5044C37.5265 11.2514 36.2694 10.348 34.8103 9.98656C33.3511 9.6251 31.8052 9.83413 30.5014 10.5691C29.1977 11.3042 28.2392 12.5071 27.8299 13.9219C27.4206 15.3368 27.5929 16.8518 28.31 18.1444L25.9989 14.2368C25.2273 12.9513 23.9665 12.0161 22.4915 11.6352C21.0165 11.2544 19.4471 11.4588 18.1258 12.2038C16.8045 12.9489 15.8386 14.1741 15.4389 15.6121C15.0392 17.0502 15.238 18.5842 15.9921 19.8796L19.4587 25.7566L19.1207 26.0387C18.06 25.2435 16.7496 24.8322 15.4131 24.875C14.0766 24.9178 12.7967 25.4121 11.7916 26.2736C10.7866 27.135 10.1186 28.3103 9.90155 29.599C9.68454 30.8877 9.93194 32.2101 10.6016 33.3405L21.5791 51.9139C24.6437 57.0984 29.6916 60.8815 35.6122 62.431C41.5328 63.9805 47.8411 63.1695 53.1495 60.1764C58.4578 57.1832 62.3313 52.2532 63.9178 46.4707C65.5044 40.6882 64.674 34.5271 61.6093 29.3426ZM44.9727 46.4516L45.0218 46.4234L45.0622 46.4911L44.9727 46.4516Z" fill="#424242"/>
</svg>
