<svg width="65" height="65" viewBox="0 0 65 65" fill="none" xmlns="http://www.w3.org/2000/svg">
<g clip-path="url(#clip0_202_446)">
<path d="M0 0H65V65H0V0Z" fill="#FFC42B"/>
<path d="M17.0911 54.3188L22.0651 51.3085C23.0249 53.0099 23.8978 54.4495 25.9918 54.4495C27.9989 54.4495 29.2646 53.6644 29.2646 50.6105V29.8414H35.3728V50.6968C35.3728 57.0234 31.6643 59.9032 26.2535 59.9032C21.3671 59.9032 18.5307 57.3725 17.0908 54.3183M38.6906 53.6642L43.6641 50.7846C44.9735 52.9228 46.6752 54.4935 49.6855 54.4935C52.2167 54.4935 53.8306 53.228 53.8306 51.4826C53.8306 49.3884 52.1725 48.6465 49.3801 47.4252L47.8533 46.7701C43.4463 44.8945 40.5231 42.5383 40.5231 37.5643C40.5231 32.9828 44.0135 29.4921 49.4677 29.4921C53.3509 29.4921 56.1434 30.8449 58.1503 34.379L53.3941 37.4335C52.3467 35.5574 51.2128 34.8157 49.4674 34.8157C47.6784 34.8157 46.544 35.9502 46.544 37.4335C46.544 39.2659 47.6784 40.0081 50.2962 41.1426L51.8232 41.7969C57.0155 44.0224 59.9388 46.291 59.9388 51.3955C59.9388 56.8936 55.6193 59.9039 49.8163 59.9039C44.1443 59.9039 40.4791 57.1988 38.6904 53.6644" fill="black"/>
</g>
<defs>
<clipPath id="clip0_202_446">
<rect width="65" height="65" fill="white"/>
</clipPath>
</defs>
</svg>
