<svg width="26" height="26" viewBox="0 0 26 26" fill="none" xmlns="http://www.w3.org/2000/svg">
<path d="M13 0.25C10.4783 0.25 8.01321 0.997774 5.91648 2.39876C3.81976 3.79975 2.18556 5.79103 1.22054 8.12079C0.255524 10.4505 0.00303191 13.0141 0.494993 15.4874C0.986955 17.9607 2.20127 20.2325 3.98439 22.0156C5.76751 23.7987 8.03935 25.0131 10.5126 25.505C12.9859 25.997 15.5495 25.7445 17.8792 24.7795C20.209 23.8144 22.2003 22.1802 23.6012 20.0835C25.0022 17.9868 25.75 15.5217 25.75 13C25.746 9.61971 24.4015 6.379 22.0112 3.98877C19.621 1.59854 16.3803 0.25397 13 0.25ZM13 24.25C10.775 24.25 8.59989 23.5902 6.74984 22.354C4.89979 21.1179 3.45785 19.3609 2.60636 17.3052C1.75488 15.2495 1.53209 12.9875 1.96617 10.8052C2.40025 8.62295 3.47171 6.61839 5.04505 5.04505C6.6184 3.47171 8.62295 2.40025 10.8052 1.96617C12.9875 1.53208 15.2495 1.75487 17.3052 2.60636C19.3609 3.45784 21.1179 4.89978 22.354 6.74984C23.5902 8.59989 24.25 10.775 24.25 13C24.2467 15.9827 23.0604 18.8422 20.9513 20.9513C18.8422 23.0604 15.9827 24.2467 13 24.25ZM7.25001 10.5C7.25001 10.2528 7.32332 10.0111 7.46067 9.80554C7.59802 9.59998 7.79324 9.43976 8.02165 9.34515C8.25006 9.25054 8.50139 9.22579 8.74387 9.27402C8.98635 9.32225 9.20907 9.4413 9.38389 9.61612C9.5587 9.79093 9.67776 10.0137 9.72599 10.2561C9.77422 10.4986 9.74946 10.7499 9.65485 10.9784C9.56025 11.2068 9.40003 11.402 9.19447 11.5393C8.98891 11.6767 8.74723 11.75 8.50001 11.75C8.16849 11.75 7.85054 11.6183 7.61612 11.3839C7.3817 11.1495 7.25001 10.8315 7.25001 10.5ZM18.75 10.5C18.75 10.7472 18.6767 10.9889 18.5393 11.1945C18.402 11.4 18.2068 11.5602 17.9784 11.6548C17.75 11.7495 17.4986 11.7742 17.2561 11.726C17.0137 11.6778 16.7909 11.5587 16.6161 11.3839C16.4413 11.2091 16.3223 10.9863 16.274 10.7439C16.2258 10.5014 16.2505 10.2501 16.3452 10.0216C16.4398 9.79324 16.6 9.59801 16.8055 9.46066C17.0111 9.32331 17.2528 9.25 17.5 9.25C17.8315 9.25 18.1495 9.3817 18.3839 9.61612C18.6183 9.85054 18.75 10.1685 18.75 10.5ZM18.6488 18.625C18.7384 18.7964 18.7584 18.9958 18.7045 19.1816C18.6506 19.3674 18.527 19.5252 18.3595 19.622C18.192 19.7188 17.9936 19.7471 17.8058 19.7011C17.6179 19.6551 17.455 19.5382 17.3513 19.375C16.3713 17.6825 14.8263 16.75 13 16.75C11.1738 16.75 9.62501 17.6825 8.64876 19.375C8.58289 19.4891 8.48813 19.5838 8.37403 19.6496C8.25992 19.7155 8.13049 19.7501 7.99876 19.75C7.86695 19.7504 7.73746 19.7154 7.62376 19.6488C7.45204 19.549 7.32692 19.3851 7.27584 19.1932C7.22475 19.0013 7.25187 18.7969 7.35126 18.625C8.59126 16.48 10.65 15.25 13 15.25C15.35 15.25 17.4088 16.48 18.6488 18.625Z"/>
</svg>
