<svg width="58" height="48" viewBox="0 0 58 48" fill="none" xmlns="http://www.w3.org/2000/svg">
<path d="M0.541363 22.6929L22.7548 0.496437C23.1057 0.169705 23.5698 -0.00816721 24.0494 0.000287699C24.5289 0.00874261 24.9865 0.202867 25.3256 0.541765C25.6648 0.880662 25.8591 1.33787 25.8675 1.81707C25.876 2.29627 25.698 2.76005 25.371 3.11069L6.31993 22.1503L56.1489 22.1503C56.6398 22.1503 57.1107 22.3452 57.4578 22.6921C57.805 23.0389 58 23.5094 58 24C58 24.4906 57.805 24.9611 57.4578 25.3079C57.1107 25.6548 56.6398 25.8497 56.1489 25.8497L6.31993 25.8497L25.371 44.8893C25.698 45.24 25.876 45.7037 25.8675 46.1829C25.8591 46.6621 25.6648 47.1193 25.3256 47.4582C24.9865 47.7971 24.5289 47.9913 24.0494 47.9997C23.5698 48.0082 23.1057 47.8303 22.7548 47.5036L0.541363 25.3071C0.19471 24.9603 -2.73832e-07 24.4902 -2.73832e-07 24C-2.73832e-07 23.5098 0.19471 23.0397 0.541363 22.6929Z" fill="#424242"/>
</svg>
