<svg width="58" height="48" viewBox="0 0 58 48" fill="none" xmlns="http://www.w3.org/2000/svg">
<path d="M57.4586 25.3071L35.2452 47.5036C34.8943 47.8303 34.4302 48.0082 33.9506 47.9997C33.4711 47.9913 33.0135 47.7971 32.6744 47.4582C32.3352 47.1193 32.1409 46.6621 32.1325 46.1829C32.124 45.7037 32.302 45.24 32.629 44.8893L51.6801 25.8497H1.85112C1.36017 25.8497 0.889331 25.6548 0.542179 25.3079C0.195027 24.9611 0 24.4906 0 24C0 23.5094 0.195027 23.0389 0.542179 22.6921C0.889331 22.3452 1.36017 22.1503 1.85112 22.1503H51.6801L32.629 3.11069C32.302 2.76005 32.124 2.29627 32.1325 1.81707C32.1409 1.33787 32.3352 0.880663 32.6744 0.541765C33.0135 0.202868 33.4711 0.00874309 33.9506 0.000288177C34.4302 -0.00816673 34.8943 0.169708 35.2452 0.49644L57.4586 22.6929C57.8053 23.0397 58 23.5098 58 24C58 24.4902 57.8053 24.9603 57.4586 25.3071Z" fill="#424242"/>
</svg>
