<svg width="19" height="16" viewBox="0 0 19 16" fill="none" xmlns="http://www.w3.org/2000/svg">
<path d="M18.7289 8.6973L11.7562 15.67C11.6461 15.7726 11.5004 15.8285 11.3498 15.8258C11.1993 15.8232 11.0557 15.7622 10.9492 15.6558C10.8428 15.5493 10.7818 15.4057 10.7791 15.2551C10.7765 15.1046 10.8323 14.9589 10.935 14.8488L16.915 8.86774H1.27393C1.11982 8.86774 0.972028 8.80653 0.863059 8.69756C0.754089 8.58859 0.692871 8.44079 0.692871 8.28669C0.692871 8.13258 0.754089 7.98479 0.863059 7.87582C0.972028 7.76685 1.11982 7.70563 1.27393 7.70563H16.915L10.935 1.72461C10.8323 1.61446 10.7765 1.46878 10.7791 1.31824C10.7818 1.16771 10.8428 1.02408 10.9492 0.917624C11.0557 0.811164 11.1993 0.750183 11.3498 0.747527C11.5004 0.744871 11.6461 0.800748 11.7562 0.903386L18.7289 7.87607C18.8377 7.98502 18.8988 8.13271 18.8988 8.28669C18.8988 8.44067 18.8377 8.58835 18.7289 8.6973Z" fill="white"/>
</svg>
