<svg width="69" height="69" viewBox="0 0 69 69" fill="none" xmlns="http://www.w3.org/2000/svg">
<g clip-path="url(#clip0_202_438)">
<path d="M52.8281 0H16.1719C7.2404 0 0 7.2404 0 16.1719V52.8281C0 61.7596 7.2404 69 16.1719 69H52.8281C61.7596 69 69 61.7596 69 52.8281V16.1719C69 7.2404 61.7596 0 52.8281 0Z" fill="#E14E1D"/>
<path d="M12.9375 10.2422L15.2582 36.277H45.098L44.0967 47.4437L34.4889 50.0414L24.8993 47.4475L24.2581 40.2774H15.6166L16.8524 54.0992L34.4871 58.9972L52.1441 54.0992L54.5113 27.6687H23.1322L22.3444 18.8524H55.2914L56.0625 10.2422H12.9375Z" fill="white"/>
<path d="M34.5 10.2422H12.9375L15.2582 36.277H34.5V27.6687H23.1322L22.3444 18.8524H34.5V10.2422ZM34.5 50.0377L34.4889 50.0414L24.8993 47.4475L24.2581 40.2774H15.6166L16.8524 54.0992L34.4871 58.9972L34.5003 58.9934L34.5 50.0377Z" fill="#EBEBEB"/>
</g>
<defs>
<clipPath id="clip0_202_438">
<rect width="69" height="69" fill="white"/>
</clipPath>
</defs>
</svg>
